<svg xmlns="http://www.w3.org/2000/svg" viewBox="0 0 192 192" width="192" height="192" role="img" aria-label="StudyMap maskable">
  
  <rect width="192" height="192" fill="#0A0A0A"></rect>
  <defs>
    <clipPath id="lp-192m"><path d="M96,55 Q69,53 41,55 L41,137 L96,137 Z"></path></clipPath>
    <clipPath id="rp-192m"><path d="M96,55 Q123,53 151,55 L151,137 L96,137 Z"></path></clipPath>
  </defs>

  
  <path d="M96,55 Q69,53 41,55 L41,137 L96,137 Z" fill="#FFFFFF"></path>
  
  <path d="M96,55 Q123,53 151,55 L151,137 L96,137 Z" fill="#FFFFFF"></path>

  
  <g clip-path="url(#lp-192m)" stroke="#0A0A0A" stroke-opacity="0.12" stroke-width="1.2" stroke-linecap="round" stroke-linejoin="round" fill="none">
    <line x1="54.75" y1="55" x2="54.75" y2="137"></line>
    <line x1="68.5" y1="55" x2="68.5" y2="137"></line>
    <line x1="82.25" y1="55" x2="82.25" y2="137"></line>
    <line x1="41" y1="71.4" x2="96" y2="71.4"></line>
    <line x1="41" y1="87.8" x2="96" y2="87.8"></line>
    <line x1="41" y1="104.2" x2="96" y2="104.2"></line>
    <line x1="41" y1="120.6" x2="96" y2="120.6"></line>
  </g>

  
  <g clip-path="url(#rp-192m)" stroke="#0A0A0A" stroke-opacity="0.12" stroke-width="1.2" stroke-linecap="round" stroke-linejoin="round" fill="none">
    <line x1="96" y1="68.67" x2="151" y2="68.67"></line>
    <line x1="96" y1="82.33" x2="151" y2="82.33"></line>
    <line x1="96" y1="96" x2="151" y2="96"></line>
    <line x1="96" y1="109.67" x2="151" y2="109.67"></line>
    <line x1="96" y1="123.33" x2="151" y2="123.33"></line>
  </g>

  
  <line x1="96" y1="55" x2="96" y2="137" stroke="#F59E0B" stroke-width="2.5" stroke-linecap="round" stroke-linejoin="round"></line>

  
  <circle cx="68.5" cy="87.8" r="5" fill="#F59E0B"></circle>
</svg>